<svg xmlns="http://www.w3.org/2000/svg" xmlns:xlink="http://www.w3.org/1999/xlink" preserveAspectRatio="xMidYMid" width="16" height="16" viewBox="0 0 16 16">
  <g>
    <rect width="16" height="16" rx="1.44" ry="1.44" fill="#b5c3ce" />
    <path d="M7.540,15.999 L7.540,9.901 L6.007,9.901 L6.007,7.705 L7.540,7.705 C7.540,7.705 7.540,6.805 7.540,5.829 C7.540,4.355 8.446,3.002 10.533,3.002 C11.378,3.002 12.004,3.087 12.004,3.087 L11.954,5.138 C11.954,5.138 11.317,5.131 10.621,5.131 C9.869,5.131 9.748,5.496 9.748,6.102 C9.748,6.580 9.748,5.082 9.748,7.705 L12.014,7.705 L11.915,9.901 L9.748,9.901 L9.748,15.999 L7.540,15.999 Z" fill="#fff"/>
  </g>
</svg>
