<svg xmlns="http://www.w3.org/2000/svg" xmlns:xlink="http://www.w3.org/1999/xlink" preserveAspectRatio="xMidYMid" width="16" height="16" viewBox="0 0 16 16">
  <g>
    <rect width="16" height="16" rx="1.44" ry="1.44" fill="#b5c3ce"></rect>
    <path d="M13.862,4.335 C13.430,4.528 12.966,4.659 12.479,4.717 C12.976,4.417 13.358,3.942 13.538,3.376 C13.072,3.654 12.557,3.856 12.009,3.964 C11.569,3.494 10.944,3.199 10.251,3.199 C8.921,3.199 7.843,4.284 7.843,5.622 C7.843,5.812 7.865,5.997 7.906,6.175 C5.905,6.074 4.131,5.109 2.943,3.643 C2.736,4.001 2.617,4.417 2.617,4.861 C2.617,5.702 3.042,6.444 3.688,6.878 C3.294,6.866 2.922,6.757 2.598,6.575 C2.597,6.585 2.597,6.595 2.597,6.605 C2.597,7.780 3.427,8.760 4.529,8.982 C4.327,9.037 4.114,9.067 3.895,9.067 C3.739,9.067 3.589,9.052 3.441,9.024 C3.748,9.987 4.637,10.688 5.691,10.707 C4.867,11.357 3.828,11.744 2.700,11.744 C2.506,11.744 2.314,11.733 2.126,11.710 C3.192,12.398 4.457,12.799 5.817,12.799 C10.246,12.799 12.667,9.106 12.667,5.904 C12.667,5.799 12.665,5.694 12.660,5.590 C13.131,5.248 13.539,4.822 13.862,4.335 Z" fill="#fff"/>
  </g>
</svg>
