<svg xmlns="http://www.w3.org/2000/svg" xmlns:xlink="http://www.w3.org/1999/xlink" preserveAspectRatio="xMidYMid" width="16" height="16" viewBox="0 0 16 16">
  <g>
    <rect width="16" height="16" rx="1.44" ry="1.44" fill="#b5c3ce"></rect>
    <path d="M6.935,5.480 C6.935,5.753 7.038,5.988 7.244,6.184 C7.449,6.381 7.695,6.477 7.981,6.477 C8.267,6.477 8.513,6.381 8.716,6.184 C8.920,5.988 9.023,5.753 9.023,5.480 C9.023,5.207 8.920,4.975 8.716,4.778 C8.513,4.582 8.267,4.484 7.981,4.484 C7.695,4.484 7.449,4.582 7.244,4.778 C7.038,4.975 6.935,5.207 6.935,5.480 L6.935,5.480 ZM5.455,5.480 C5.455,4.828 5.701,4.271 6.195,3.803 C6.687,3.338 7.284,3.104 7.981,3.104 C8.679,3.104 9.276,3.338 9.770,3.803 C10.262,4.271 10.510,4.828 10.510,5.480 C10.510,6.132 10.262,6.692 9.770,7.157 C9.276,7.624 8.679,7.857 7.981,7.857 C7.284,7.857 6.687,7.624 6.195,7.157 C5.701,6.692 5.455,6.132 5.455,5.480 L5.455,5.480 ZM10.412,11.192 C10.563,11.326 10.638,11.491 10.638,11.685 C10.638,11.876 10.563,12.042 10.412,12.178 C10.262,12.310 10.084,12.380 9.883,12.380 C9.680,12.380 9.507,12.310 9.364,12.176 L7.984,10.868 L6.591,12.176 C6.446,12.310 6.270,12.380 6.064,12.380 C5.861,12.380 5.688,12.310 5.545,12.178 C5.399,12.042 5.329,11.879 5.329,11.690 C5.329,11.498 5.399,11.332 5.545,11.192 L6.955,9.866 C6.443,9.752 5.954,9.553 5.485,9.270 C5.314,9.167 5.206,9.014 5.161,8.812 C5.116,8.611 5.149,8.429 5.259,8.267 C5.364,8.103 5.517,8.000 5.721,7.958 C5.921,7.914 6.107,7.945 6.278,8.051 C6.795,8.357 7.361,8.508 7.979,8.508 C8.596,8.508 9.160,8.357 9.677,8.051 C9.848,7.945 10.036,7.914 10.242,7.958 C10.448,8.000 10.601,8.103 10.706,8.267 C10.809,8.429 10.839,8.609 10.794,8.807 C10.749,9.007 10.641,9.160 10.470,9.270 C9.998,9.553 9.509,9.752 9.002,9.866 L10.412,11.192 L10.412,11.192 Z" fill="#fff"/>
  </g>
</svg>
