<svg xmlns="http://www.w3.org/2000/svg" xmlns:xlink="http://www.w3.org/1999/xlink" preserveAspectRatio="xMidYMid" width="16" height="16" viewBox="0 0 16 16">
  <g>
    <rect width="16" height="16" rx="1.44" ry="1.44" fill="#b5c3ce"></rect>
    <path d="M8.036,3.196 C8.129,3.253 8.233,3.337 8.349,3.447 C8.461,3.562 8.570,3.703 8.677,3.871 C8.779,4.029 8.870,4.215 8.949,4.430 C9.014,4.645 9.047,4.896 9.047,5.184 C9.038,5.710 8.921,6.131 8.696,6.447 C8.586,6.599 8.469,6.741 8.345,6.870 C8.209,6.999 8.063,7.131 7.909,7.264 C7.820,7.355 7.739,7.458 7.664,7.573 C7.576,7.693 7.532,7.832 7.532,7.989 C7.532,8.143 7.577,8.269 7.667,8.369 C7.744,8.466 7.819,8.549 7.891,8.621 L8.394,9.029 C8.706,9.283 8.979,9.563 9.215,9.869 C9.436,10.180 9.551,10.587 9.561,11.089 C9.561,11.802 9.244,12.433 8.611,12.983 C7.954,13.552 7.006,13.847 5.768,13.866 C4.731,13.856 3.957,13.637 3.446,13.207 C2.929,12.806 2.671,12.326 2.671,11.767 C2.671,11.495 2.755,11.192 2.923,10.858 C3.086,10.523 3.381,10.230 3.808,9.977 C4.287,9.705 4.791,9.523 5.319,9.432 C5.841,9.356 6.275,9.313 6.620,9.304 C6.514,9.164 6.418,9.015 6.335,8.856 C6.238,8.702 6.189,8.517 6.189,8.301 C6.189,8.170 6.207,8.063 6.244,7.976 C6.277,7.885 6.307,7.800 6.335,7.724 C6.167,7.743 6.008,7.752 5.859,7.752 C5.071,7.743 4.471,7.497 4.058,7.014 C3.625,6.564 3.409,6.040 3.409,5.442 C3.409,4.720 3.715,4.065 4.328,3.476 C4.749,3.132 5.186,2.908 5.640,2.802 C6.089,2.711 6.510,2.666 6.903,2.666 L9.863,2.666 L8.949,3.196 L8.036,3.196 ZM8.607,11.664 C8.607,11.290 8.485,10.965 8.240,10.688 C7.981,10.425 7.576,10.102 7.024,9.719 C6.930,9.710 6.819,9.705 6.692,9.705 C6.616,9.694 6.424,9.705 6.112,9.734 C5.806,9.776 5.493,9.846 5.172,9.941 C5.097,9.970 4.990,10.013 4.854,10.071 C4.717,10.133 4.578,10.222 4.437,10.336 C4.300,10.456 4.185,10.604 4.090,10.781 C3.982,10.968 3.927,11.193 3.927,11.456 C3.927,11.972 4.163,12.398 4.635,12.733 C5.083,13.068 5.695,13.240 6.473,13.250 C7.170,13.240 7.703,13.088 8.070,12.791 C8.429,12.498 8.607,12.123 8.607,11.664 ZM6.544,7.352 C6.933,7.337 7.258,7.199 7.518,6.935 C7.643,6.748 7.723,6.556 7.759,6.360 C7.781,6.163 7.792,5.998 7.792,5.864 C7.792,5.284 7.643,4.699 7.344,4.109 C7.204,3.826 7.020,3.596 6.791,3.419 C6.558,3.251 6.290,3.163 5.986,3.153 C5.585,3.163 5.252,3.323 4.986,3.635 C4.762,3.961 4.654,4.325 4.664,4.727 C4.664,5.259 4.821,5.813 5.134,6.388 C5.286,6.657 5.482,6.884 5.721,7.071 C5.961,7.258 6.236,7.352 6.544,7.352 ZM13.874,4.273 L12.320,4.273 L12.320,2.729 L11.568,2.729 L11.568,4.273 L10.014,4.273 L10.014,5.020 L11.568,5.020 L11.568,6.564 L12.320,6.564 L12.320,5.020 L13.874,5.020 L13.874,4.273 Z" fill="#fff"/>
  </g>
</svg>
