<svg xmlns="http://www.w3.org/2000/svg" xmlns:xlink="http://www.w3.org/1999/xlink" preserveAspectRatio="xMidYMid" width="16" height="16" viewBox="0 0 16 16">
  <g>
    <rect width="16" height="16" rx="1.44" ry="1.44" fill="#b5c3ce"/>
    <path d="M4.357,3.101 L11.640,3.101 C12.332,3.101 12.898,3.667 12.898,4.358 L12.898,11.640 C12.898,12.332 12.332,12.897 11.640,12.897 L4.357,12.897 C3.665,12.897 3.099,12.332 3.099,11.640 L3.099,4.358 C3.099,3.667 3.665,3.101 4.357,3.101 L4.357,3.101 ZM10.237,4.189 C9.994,4.189 9.796,4.388 9.796,4.631 L9.796,5.686 C9.796,5.929 9.994,6.127 10.237,6.127 L11.344,6.127 C11.587,6.127 11.785,5.929 11.785,5.686 L11.785,4.631 C11.785,4.388 11.587,4.189 11.344,4.189 L10.237,4.189 L10.237,4.189 ZM11.790,7.244 L10.928,7.244 C11.009,7.510 11.053,7.792 11.053,8.084 C11.053,9.714 9.690,11.035 8.008,11.035 C6.326,11.035 4.962,9.714 4.962,8.084 C4.962,7.792 5.006,7.510 5.088,7.244 L4.188,7.244 L4.188,11.382 C4.188,11.596 4.363,11.772 4.577,11.772 L11.401,11.772 C11.615,11.772 11.790,11.596 11.790,11.382 L11.790,7.244 L11.790,7.244 ZM8.008,6.071 C6.921,6.071 6.040,6.925 6.040,7.978 C6.040,9.031 6.921,9.884 8.008,9.884 C9.094,9.884 9.976,9.031 9.976,7.978 C9.976,6.925 9.094,6.071 8.008,6.071 Z" fill="#fff"/>
  </g>
</svg>
