<svg xmlns="http://www.w3.org/2000/svg" xmlns:xlink="http://www.w3.org/1999/xlink" preserveAspectRatio="xMidYMid" width="16" height="16" viewBox="0 0 16 16">
  <g>
    <rect width="16" height="16" rx="1.44" ry="1.44" fill="#b5c3ce"></rect>
    <path d="M7.887,11.172 L8.589,11.172 C8.589,11.172 8.801,11.150 8.909,11.038 C9.009,10.936 9.005,10.744 9.005,10.744 C9.005,10.744 8.992,9.844 9.428,9.712 C9.859,9.581 10.412,10.581 10.998,10.966 C11.441,11.256 11.778,11.193 11.778,11.193 L13.345,11.172 C13.345,11.172 14.165,11.124 13.776,10.508 C13.745,10.457 13.550,10.052 12.611,9.219 C11.628,8.347 11.760,8.488 12.944,6.980 C13.665,6.062 13.953,5.501 13.863,5.260 C13.777,5.031 13.247,5.092 13.247,5.092 L11.482,5.103 C11.482,5.103 11.351,5.085 11.254,5.141 C11.160,5.195 11.099,5.322 11.099,5.322 C11.099,5.322 10.819,6.033 10.447,6.637 C9.661,7.912 9.347,7.980 9.218,7.901 C8.920,7.716 8.994,7.159 8.994,6.763 C8.994,5.528 9.190,5.012 8.612,4.879 C8.421,4.835 8.279,4.805 7.789,4.800 C7.159,4.794 6.626,4.803 6.324,4.943 C6.124,5.038 5.969,5.247 6.063,5.259 C6.180,5.274 6.444,5.327 6.584,5.510 C6.765,5.744 6.759,6.273 6.759,6.273 C6.759,6.273 6.862,7.728 6.516,7.908 C6.278,8.032 5.952,7.779 5.251,6.622 C4.892,6.029 4.621,5.374 4.621,5.374 C4.621,5.374 4.569,5.251 4.476,5.186 C4.363,5.107 4.205,5.082 4.205,5.082 L2.528,5.092 C2.528,5.092 2.276,5.099 2.184,5.203 C2.101,5.296 2.177,5.489 2.177,5.489 C2.177,5.489 3.490,8.425 4.976,9.905 C6.340,11.261 7.887,11.172 7.887,11.172 L7.887,11.172 Z" fill="#fff" />
  </g>
</svg>
