<svg xmlns="http://www.w3.org/2000/svg" xmlns:xlink="http://www.w3.org/1999/xlink" preserveAspectRatio="xMidYMid" width="192" height="55.44" viewBox="0 0 192 55.44">
  <defs>
    <style>
      .logo-cls-1, .logo-cls-2 {
        font-size: 30px;
      }

      .logo-cls-2, .logo-cls-3 {
        fill: #004083;
      }

      .logo-cls-2 {
        font-family: "RexBold";
      }

      .logo-cls-3 {
        opacity: 0.9;
        fill-rule: evenodd;
      }
    </style>
  </defs>
  <g>
    <text x="35" y="37" class="logo-cls-1"><tspan class="logo-cls-2">myapp.travel</tspan></text>
    <path d="M20.000,29.655 C18.764,29.334 17.628,29.324 16.698,29.690 L19.741,33.750 C19.831,33.676 19.911,33.591 20.000,33.516 L20.000,37.103 L19.383,36.280 C18.043,37.204 16.608,37.981 15.109,38.598 C15.709,40.326 16.628,42.137 17.837,43.882 L20.000,42.262 L20.000,44.515 L18.918,45.326 C19.016,45.448 19.117,45.565 19.217,45.684 C18.946,45.800 18.688,45.893 18.422,46.000 L15.012,46.000 L16.392,44.965 C15.059,43.059 14.056,41.105 13.398,39.225 C12.511,39.510 11.607,39.741 10.692,39.914 C10.683,40.248 10.686,41.105 10.869,42.587 C10.966,43.379 11.207,44.265 11.207,44.265 C11.207,44.265 11.206,44.268 11.206,44.268 C11.378,44.856 11.595,45.433 11.851,46.000 L9.899,46.000 C9.879,45.947 9.850,45.897 9.830,45.844 C9.809,45.795 9.787,45.742 9.766,45.683 C9.765,45.681 9.764,45.679 9.764,45.677 C9.750,45.641 9.734,45.606 9.721,45.570 C9.723,45.568 9.724,45.566 9.725,45.565 C9.532,45.010 9.377,44.433 9.256,43.866 C9.250,43.873 9.245,43.879 9.239,43.885 L9.239,43.885 C9.253,43.868 8.991,42.712 8.986,42.430 C8.985,42.424 8.995,42.425 9.000,42.423 C9.004,42.420 9.007,42.419 9.011,42.417 C8.937,41.829 8.897,41.292 8.885,40.852 C8.882,40.853 8.879,40.855 8.876,40.856 C8.799,36.243 10.853,31.657 14.820,28.685 C16.416,27.489 18.178,26.670 20.000,26.200 L20.000,29.655 ZM12.471,33.965 C11.728,35.231 11.212,36.606 10.929,38.026 C11.588,37.881 12.238,37.697 12.880,37.488 C12.580,36.248 12.443,35.062 12.471,33.965 ZM14.607,36.856 C15.899,36.310 17.135,35.627 18.298,34.832 L15.255,30.770 C14.212,32.115 14.026,34.325 14.607,36.856 Z" class="logo-cls-3"/>
    <path d="M48.000,8.946 L48.000,4.999 C48.000,4.447 47.552,3.999 47.000,3.999 L19.000,3.999 C18.448,3.999 18.000,4.447 18.000,4.999 L18.000,13.999 L14.000,13.999 L14.000,2.999 C14.000,1.343 15.344,-0.001 17.000,-0.001 L49.000,-0.001 C50.656,-0.001 52.000,1.343 52.000,2.999 L52.000,8.946 L48.000,8.946 ZM34.437,1.312 L31.563,1.312 C31.173,1.312 30.875,1.617 30.875,1.999 C30.875,2.381 31.173,2.686 31.563,2.686 L34.437,2.686 C34.828,2.686 35.125,2.381 35.125,1.999 C35.125,1.617 34.828,1.312 34.437,1.312 ZM24.000,17.999 L24.000,48.999 C24.000,50.655 22.656,51.999 21.000,51.999 L3.000,51.999 C1.344,51.999 -0.000,50.655 -0.000,48.999 L-0.000,18.999 C-0.000,17.343 1.344,15.999 3.000,15.999 L21.000,15.999 C22.656,15.999 24.000,16.343 24.000,17.999 ZM12.000,50.749 C12.998,50.749 13.812,49.977 13.812,48.999 C13.812,48.021 12.996,47.249 12.000,47.249 C11.004,47.249 10.187,48.021 10.187,48.999 C10.187,49.977 11.002,50.749 12.000,50.749 ZM13.437,17.311 L10.562,17.311 C10.173,17.311 9.875,17.617 9.875,17.999 C9.875,18.381 10.173,18.687 10.562,18.687 L13.437,18.687 C13.828,18.687 14.125,18.381 14.125,17.999 C14.125,17.617 13.828,17.311 13.437,17.311 ZM20.000,20.999 C20.000,20.447 19.552,19.999 19.000,19.999 L5.000,19.999 C4.448,19.999 4.000,20.447 4.000,20.999 L4.000,44.999 C4.000,45.551 4.448,45.999 5.000,45.999 L19.000,45.999 C19.552,45.999 20.000,45.551 20.000,44.999 L20.000,20.999 ZM47.174,41.964 L52.000,41.964 L52.000,44.999 C52.000,46.655 50.656,47.999 49.000,47.999 L26.000,47.999 L26.000,41.999 L47.000,41.999 C47.062,41.999 47.115,41.975 47.174,41.964 ZM33.000,43.249 C32.004,43.249 31.187,44.021 31.187,44.999 C31.187,45.977 32.002,46.749 33.000,46.749 C33.998,46.749 34.812,45.977 34.812,44.999 C34.812,44.021 33.996,43.249 33.000,43.249 Z" class="logo-cls-3"/>
  </g>
</svg>
