<?xml version="1.0" encoding="utf-8"?><svg width="192" height="82" viewBox="0 0 192 82" xmlns="http://www.w3.org/2000/svg" xmlns:xlink="http://www.w3.org/1999/xlink"><svg preserveAspectRatio="xMidYMid" width="16" height="16" viewBox="0 0 16 16" id="images--svg--icon-facebook" x="26.094" y="55.44"><rect width="16" height="16" rx="1.44" ry="1.44" fill="#b5c3ce"/><path d="M7.54 16V9.9H6.007V7.706H7.54V5.83C7.54 4.354 8.446 3 10.533 3c.845 0 1.47.085 1.47.085l-.05 2.05s-.636-.006-1.332-.006c-.75 0-.872.366-.872.972v1.603h2.266l-.1 2.196H9.75V16H7.54z" fill="#fff"/></svg><svg preserveAspectRatio="xMidYMid" width="16" height="16" viewBox="0 0 16 16" id="images--svg--icon-googleplus" x="42.094" y="55.44"><rect width="16" height="16" rx="1.44" ry="1.44" fill="#b5c3ce"/><path d="M8.036 3.196c.093.057.197.14.313.25.11.116.22.257.327.425.102.16.193.345.272.56.064.215.097.466.097.754-.01.526-.126.947-.35 1.263-.11.152-.228.294-.352.423-.136.13-.282.26-.436.394-.09.09-.17.194-.246.31-.088.12-.132.258-.132.415 0 .153.045.28.135.38.077.096.152.18.224.25l.504.41c.312.253.585.533.82.84.222.31.337.717.347 1.22 0 .712-.316 1.343-.95 1.893-.656.57-1.604.864-2.842.883-1.037-.01-1.81-.23-2.322-.66-.517-.4-.775-.88-.775-1.44 0-.27.085-.574.253-.908.163-.335.458-.628.885-.88.48-.273.983-.455 1.51-.546.523-.076.957-.12 1.302-.128-.106-.14-.202-.29-.285-.448-.097-.154-.146-.34-.146-.555 0-.13.017-.237.054-.324l.09-.252c-.167.02-.326.028-.475.028-.79-.01-1.39-.255-1.802-.738-.433-.45-.65-.974-.65-1.572 0-.722.307-1.377.92-1.966.42-.344.858-.568 1.312-.674.45-.09.87-.136 1.263-.136h2.96l-.914.53h-.914zm.57 8.468c0-.374-.12-.7-.366-.976-.26-.263-.664-.586-1.216-.97-.094-.008-.205-.013-.332-.013-.076-.01-.268 0-.58.03-.306.04-.62.11-.94.206-.075.03-.182.073-.318.13-.137.063-.276.152-.417.266-.137.12-.252.268-.347.445-.108.188-.163.413-.163.676 0 .516.236.942.708 1.277.448.335 1.06.507 1.838.517.697-.01 1.23-.162 1.597-.46.36-.292.537-.667.537-1.126zM6.545 7.352c.39-.015.714-.153.974-.417.125-.187.205-.38.24-.575.023-.197.034-.362.034-.496 0-.58-.15-1.165-.448-1.755-.14-.284-.324-.514-.553-.69-.232-.17-.5-.257-.804-.267-.4.01-.734.17-1 .482-.224.326-.332.69-.322 1.092 0 .532.157 1.086.47 1.66.152.27.348.497.587.684.24.188.516.282.824.282zm7.33-3.08H12.32V2.73h-.752v1.543h-1.554v.747h1.554v1.544h.752V5.02h1.554v-.747z" fill="#fff"/></svg><svg preserveAspectRatio="xMidYMid" width="16" height="16" viewBox="0 0 16 16" id="images--svg--icon-instagram" x="58.094" y="55.44"><rect width="16" height="16" rx="1.44" ry="1.44" fill="#b5c3ce"/><path d="M4.357 3.1h7.283c.692 0 1.258.567 1.258 1.258v7.282c0 .692-.566 1.257-1.258 1.257H4.357c-.692 0-1.258-.565-1.258-1.257V4.358c0-.69.565-1.257 1.257-1.257zm5.88 1.09c-.243 0-.44.198-.44.44v1.056c0 .243.197.44.44.44h1.107c.243 0 .44-.197.44-.44V4.63c0-.242-.197-.44-.44-.44h-1.107zm1.553 3.054h-.862c.08.266.125.548.125.84 0 1.63-1.363 2.95-3.045 2.95s-3.046-1.32-3.046-2.95c0-.292.044-.574.126-.84h-.9v4.138c0 .214.175.39.39.39H11.4c.215 0 .39-.176.39-.39V7.244zM8.008 6.07c-1.087 0-1.968.855-1.968 1.908s.88 1.906 1.968 1.906c1.086 0 1.968-.853 1.968-1.906S9.094 6.07 8.008 6.07z" fill="#fff"/></svg><svg preserveAspectRatio="xMidYMid" width="26.094" height="26.09" viewBox="0 0 26.094 26.09" id="images--svg--icon-modal-close" y="55.44"><circle cx="13.047" cy="13.045" r="13.047" fill="#004083"/><path d="M21.04 8.384l-4.642 4.643 4.64 4.64-3.372 3.37-4.64-4.64-4.656 4.658-3.38-3.38L9.65 13.02l-4.65-4.65L8.372 5l4.65 4.648 4.64-4.643 3.38 3.38z" fill="#fff" fill-rule="evenodd"/></svg><svg preserveAspectRatio="xMidYMid" width="16" height="16" viewBox="0 0 16 16" id="images--svg--icon-ok" x="74.094" y="55.44"><rect width="16" height="16" rx="1.44" ry="1.44" fill="#b5c3ce"/><path d="M6.935 5.48c0 .273.103.508.31.704.204.197.45.293.736.293.287 0 .533-.096.736-.293.204-.196.307-.43.307-.704 0-.273-.103-.505-.307-.702-.203-.196-.45-.294-.735-.294s-.53.098-.736.294c-.206.197-.31.43-.31.702zm-1.48 0c0-.652.246-1.21.74-1.677.492-.465 1.09-.7 1.786-.7.7 0 1.296.235 1.79.7.492.468.74 1.025.74 1.677 0 .652-.248 1.212-.74 1.677-.494.467-1.09.7-1.79.7-.696 0-1.293-.233-1.785-.7-.494-.465-.74-1.025-.74-1.677zm4.957 5.712c.15.134.226.3.226.493 0 .19-.075.357-.226.493-.15.132-.328.202-.53.202s-.375-.07-.518-.204l-1.38-1.308-1.393 1.308c-.144.134-.32.204-.526.204-.203 0-.376-.07-.52-.202-.145-.136-.215-.3-.215-.488 0-.192.07-.358.215-.498l1.41-1.326c-.512-.114-1-.313-1.47-.596-.17-.103-.28-.256-.324-.458-.044-.2-.01-.383.1-.545.104-.164.257-.267.46-.31.2-.043.387-.012.558.094.517.307 1.083.458 1.7.458.618 0 1.182-.15 1.7-.457.17-.105.358-.136.564-.092.206.042.36.145.464.31.103.16.133.34.088.54-.045.2-.153.352-.324.462-.472.283-.96.482-1.468.596l1.41 1.326z" fill="#fff"/></svg><svg preserveAspectRatio="xMidYMid" width="16" height="16" viewBox="0 0 16 16" id="images--svg--icon-twitter" x="90.094" y="55.44"><rect width="16" height="16" rx="1.44" ry="1.44" fill="#b5c3ce"/><path d="M13.862 4.335c-.432.193-.896.324-1.383.382.496-.3.878-.775 1.058-1.34-.466.277-.98.48-1.53.587-.44-.47-1.064-.765-1.757-.765-1.33 0-2.407 1.084-2.407 2.422 0 .19.022.375.063.553-2-.1-3.775-1.066-4.963-2.532-.207.358-.326.774-.326 1.218 0 .842.425 1.584 1.07 2.018-.393-.012-.765-.12-1.09-.303v.03c0 1.175.83 2.155 1.932 2.377-.203.055-.416.085-.635.085-.156 0-.306-.015-.454-.043.308.963 1.197 1.664 2.25 1.683-.823.65-1.862 1.037-2.99 1.037-.194 0-.386-.01-.574-.034 1.066.688 2.33 1.09 3.69 1.09 4.43 0 6.85-3.694 6.85-6.896 0-.105 0-.21-.006-.314.47-.342.88-.768 1.202-1.255z" fill="#fff"/></svg><svg preserveAspectRatio="xMidYMid" width="16" height="16" viewBox="0 0 16 16" id="images--svg--icon-vk" x="106.094" y="55.44"><rect width="16" height="16" rx="1.44" ry="1.44" fill="#b5c3ce"/><path d="M7.887 11.172h.702s.21-.022.32-.134c.1-.102.095-.294.095-.294s-.013-.9.423-1.032c.43-.13.984.87 1.57 1.254.443.29.78.227.78.227l1.567-.02s.82-.05.43-.665c-.03-.05-.225-.456-1.164-1.29-.982-.87-.85-.73.334-2.238.72-.918 1.01-1.48.92-1.72-.087-.23-.617-.168-.617-.168l-1.765.01s-.13-.017-.228.04c-.094.053-.155.18-.155.18s-.28.71-.653 1.315C9.66 7.912 9.347 7.98 9.217 7.9c-.297-.184-.223-.74-.223-1.137 0-1.235.196-1.75-.382-1.884-.19-.045-.333-.075-.823-.08-.63-.006-1.164.003-1.466.143-.2.095-.355.304-.26.316.116.014.38.067.52.25.18.234.175.763.175.763s.102 1.455-.244 1.635c-.238.124-.564-.13-1.265-1.286-.358-.593-.63-1.248-.63-1.248s-.05-.123-.144-.188c-.113-.08-.27-.104-.27-.104l-1.678.01s-.252.007-.344.11c-.083.094-.007.287-.007.287s1.313 2.935 2.8 4.415c1.363 1.356 2.91 1.267 2.91 1.267z" fill="#fff"/></svg><svg preserveAspectRatio="xMidYMid" width="192" height="55.44" viewBox="0 0 192 55.44" id="images--svg--logo"><defs><style>.logo-cls-1,.logo-cls-2{font-size:30px}.logo-cls-2,.logo-cls-3{fill:#004083}.hlogo-cls-2{font-family:"RexBold"}.hlogo-cls-3{opacity:.9;fill-rule:evenodd}</style></defs><text x="35" y="37" class="hlogo-cls-1"><tspan class="hlogo-cls-2">myapp.travel</tspan></text><path d="M20 29.655c-1.236-.32-2.372-.33-3.302.035l3.043 4.06c.09-.074.17-.16.26-.234v3.587l-.617-.823c-1.34.924-2.775 1.7-4.274 2.318.6 1.728 1.518 3.54 2.727 5.284L20 42.262v2.253l-1.082.81c.098.123.2.24.3.36-.272.115-.53.208-.796.315h-3.41l1.38-1.035c-1.333-1.906-2.336-3.86-2.994-5.74-.887.285-1.79.516-2.706.69-.01.333-.006 1.19.177 2.672.096.792.337 1.678.337 1.678v.003c.17.588.388 1.165.644 1.732H9.9c-.02-.053-.05-.103-.07-.156-.02-.05-.043-.102-.064-.16l-.002-.007c-.014-.036-.03-.07-.043-.107l.005-.005c-.193-.555-.348-1.132-.47-1.7-.005.008-.01.014-.016.02.013-.017-.25-1.173-.254-1.455 0-.006.01-.005.014-.007l.01-.006c-.073-.588-.113-1.125-.125-1.565-.003 0-.006.003-.01.004-.076-4.613 1.978-9.2 5.945-12.17 1.596-1.197 3.358-2.016 5.18-2.486v3.455zm-7.53 4.31c-.742 1.266-1.258 2.64-1.54 4.06.658-.144 1.308-.328 1.95-.537-.3-1.24-.437-2.426-.41-3.523zm2.137 2.89c1.292-.545 2.528-1.228 3.69-2.023l-3.042-4.062c-1.043 1.345-1.23 3.555-.648 6.086z" class="hlogo-cls-3"/><path d="M48 8.946V5c0-.553-.448-1-1-1H19c-.552 0-1 .447-1 1v9h-4V3c0-1.657 1.344-3 3-3h32c1.656 0 3 1.343 3 3v5.946h-4zM34.437 1.312h-2.874c-.39 0-.688.305-.688.687 0 .38.298.686.688.686h2.874c.39 0 .688-.305.688-.687 0-.383-.297-.688-.688-.688zM24 18v31c0 1.655-1.344 3-3 3H3c-1.656 0-3-1.345-3-3V19c0-1.657 1.344-3 3-3h18c1.656 0 3 .343 3 2zM12 50.75c.998 0 1.812-.773 1.812-1.75 0-.98-.816-1.75-1.812-1.75-.996 0-1.813.77-1.813 1.75 0 .977.815 1.75 1.813 1.75zm1.437-33.44h-2.875c-.39 0-.687.307-.687.69 0 .38.298.687.687.687h2.875c.39 0 .688-.306.688-.688 0-.383-.297-.69-.688-.69zM20 21c0-.553-.448-1-1-1H5c-.552 0-1 .447-1 1v24c0 .55.448 1 1 1h14c.552 0 1-.45 1-1V21zm27.174 20.964H52V45c0 1.655-1.344 3-3 3H26v-6h21c.062 0 .115-.025.174-.036zM33 43.25c-.996 0-1.813.77-1.813 1.75 0 .977.815 1.75 1.813 1.75s1.812-.773 1.812-1.75c0-.98-.816-1.75-1.812-1.75z" class="hlogo-cls-3"/></svg></svg>